<?xml version="1.0" encoding="utf-8"?>
<!-- Generator: Adobe Illustrator 21.0.0, SVG Export Plug-In . SVG Version: 6.00 Build 0)  -->
<svg version="1.1" id="图层_1" xmlns="http://www.w3.org/2000/svg" xmlns:xlink="http://www.w3.org/1999/xlink" x="0px" y="0px"
	 viewBox="0 0 300 91" style="enable-background:new 0 0 300 91;" xml:space="preserve">
<style type="text/css">
	.st0{fill:#0B457F;}
</style>
<path class="st0" d="M210.5,31.1V42h-1.7V31.1h-3.6v-1.3h3.6v-2.6c-1,0.1-2,0.1-3.1,0.1v-1.2c2.9-0.1,5.6-0.4,7.8-0.7v1.2
	c-0.9,0.1-1.8,0.3-3,0.4v2.7h3.3v1.3H210.5z M206.1,32.2h1.3c0,2.7-0.3,5.5-0.7,8.1h-1.4C205.7,37.7,206,35,206.1,32.2 M213.2,32.2
	c0,2.8,0.3,5.4,0.7,8h-1.4c-0.4-2.9-0.6-5.6-0.6-8H213.2z M224.1,37.6l-1.9,0.2V42h-1.8v-4l-6,0.6v-1.4l6-0.6V25.4h1.8v11l1.9-0.2
	V37.6z M217.1,35.5c-0.6-1.4-1.5-2.8-2.7-4.2h1.8c0.9,1.1,1.8,2.4,2.7,4.2H217.1z M217.6,30.5c-0.7-1.5-1.5-2.9-2.7-4.2h1.8
	c1,1.1,1.9,2.6,2.7,4.2H217.6z"/>
<path class="st0" d="M232.6,28.6h2v1.3h-2v3.9c0.7-0.2,1.4-0.4,2-0.7v1.3c-0.6,0.2-1.3,0.4-2,0.7V40c0,1.1-0.4,1.9-1.9,1.9h-2.4
	v-1.3h1.5c0.8,0,0.9-0.2,0.9-0.9v-4c-0.8,0.2-1.6,0.4-2.4,0.6v-1.4c0.7-0.2,1.6-0.4,2.4-0.6v-4.5h-2.6v-1.3h2.6v-3.1h1.8V28.6z
	 M247.2,42.1c-2.4-0.7-4.4-1.6-6.1-2.8c-1.6,1-3.6,1.9-6.1,2.8v-1.7c1.9-0.6,3.4-1.3,4.7-2.1c-1.4-1.2-2.6-2.5-3.7-4.2h1.9
	c1,1.3,2.1,2.3,3.2,3.2c1.3-1,2.3-2.2,3.3-3.5c0.3-0.4,0.3-0.7-0.3-0.7h-8.5v-1.3h4.6v-2.5h-4.9V28h4.9v-2.6h1.9V28h5v1.3h-5v2.5
	h3.5c1.4,0,1.4,0.9,0.9,1.8c-1.1,1.7-2.3,3.3-4,4.6c1.3,0.8,2.9,1.5,4.6,2.1V42.1z"/>
<path class="st0" d="M270,33.4h-8.4c1.7,2.7,4.3,5.4,7.9,6.9v1.7c-4.8-1.8-7.7-4.9-9.9-8.6h-3.3v6.2c0,0.6,0.3,0.9,1,0.9h3.7v1.3
	h-4.9c-1.3,0-1.8-0.6-1.8-1.7v-6.7h-3.6v-1.3h3.6v-6.4h2v6.4H270V33.4z M261.9,31.1h-2.4c2.1-1.7,4.4-3.7,6.1-5.3h2.4
	C266.2,27.5,263.9,29.5,261.9,31.1"/>
<path class="st0" d="M285.3,38.6c2.2,0.7,4.6,1.3,6.8,1.8v1.7c-2.7-0.5-5.8-1.4-8.7-2.4c-2.4,1.2-5.5,1.9-9.3,2.4v-1.6
	c2.6-0.3,5-0.8,7.1-1.5c-1.6-0.6-3-1.2-4-1.8c-1-0.5-1.1-1.1-0.5-2.1c0.3-0.5,0.7-1.1,1-1.6h-4.3v-1.3h5.2c0.5-0.7,1-1.4,1.5-2.1
	h2.1c-0.6,0.7-1.1,1.4-1.6,2.1h12v1.3h-3.5C288.5,35.7,287.2,37.4,285.3,38.6 M276.4,30.8h-1.9V27h7.5v-1.5h2V27h6.4
	c1.2,0,1.6,0.6,1.6,1.8v2.1H290v-1.5c0-0.7-0.2-1-1-1h-12.6V30.8z M287.5,33.4h-7.6c-0.4,0.6-0.9,1.2-1.2,1.9
	c-0.3,0.4-0.2,0.6,0.2,0.7c1.3,0.7,2.8,1.3,4.5,1.9C285.3,36.9,286.8,35.4,287.5,33.4"/>
<path class="st0" d="M208.3,56.6H205v-1.1h3.9c0.2-0.6,0.3-1.2,0.3-1.9h-1.6c-0.2,0.4-0.5,0.8-0.7,1.2h-1.9c0.7-1,1.5-2.4,1.8-3.5
	h1.8c-0.1,0.4-0.3,0.8-0.5,1.2h6v1.1H211c0,0.7-0.1,1.3-0.3,1.9h3.4v1.1h-3.9c-0.7,1.3-1.8,2.5-3,3.3h-2.2
	C206.5,58.8,207.6,57.8,208.3,56.6 M222.4,62.2v4c0,1.2-0.6,1.7-1.8,1.7h-13.9v-7.4h14C221.8,60.5,222.4,61,222.4,62.2 M208.4,61.7
	v2h12.1v-0.9c0-0.8-0.2-1.1-1-1.1H208.4z M220.5,65.7v-1h-12.1v2.1h11C220.2,66.8,220.5,66.6,220.5,65.7 M211.9,57.2
	c0.6,0.5,1.3,1.4,2.1,2.3h-2c-0.6-0.8-1.3-1.6-1.9-2.3H211.9z M223,53.9V58c0,0.9-0.4,1.5-1.4,1.5h-6.3v-7h6.3
	C222.6,52.5,223,53,223,53.9 M221.3,54.5c0-0.6-0.1-0.9-0.9-0.9h-3.5v4.7h3.5c0.7,0,0.8-0.2,0.8-0.9V54.5z"/>
<path class="st0" d="M231.3,57.2h-3.7v-0.9h3.7v-1.1h-3v-0.9h3v-1h-3.5v-1h3.5v-0.9h1.8v0.9h3.1v1h-3.1v1h2.8v0.9h-2.8v1.1h3.3v0.9
	h-3.3v1.1h7.4v-1.1h-3.3v-0.9h3.3v-1.1h-2.8v-0.9h2.8v-1h-3.1v-1h3.1v-0.9h1.8v0.9h3.5v1h-3.5v1h3v0.9h-3v1.1h3.7v0.9h-3.7v1.1h0.9
	c1.2,0,1.6,0.5,1.6,1.4v2.3c0,0.9-0.4,1.4-1.6,1.4h-14.2v-1h13.4c0.6,0,0.7-0.2,0.7-0.8v-0.4h-13.3v-0.9H243v-0.3
	c0-0.6-0.1-0.8-0.7-0.8h-13.4v-1h2.4V57.2z M229.4,64.5h1.8c-0.4,1-0.9,2.1-1.4,3.2h-1.9C228.5,66.7,229.1,65.5,229.4,64.5
	 M234.9,66.8h7.4v1.2h-8.4c-1,0-1.5-0.3-1.5-1.5v-2.2h1.8V66C234.2,66.5,234.3,66.8,234.9,66.8 M236.5,64h1.7
	c0.5,0.6,0.9,1.3,1.2,1.9h-1.8C237.3,65.3,237,64.6,236.5,64 M246.1,67.7H244c-0.5-1-1.2-2.2-2.1-3.3h1.8
	C244.5,65.3,245.5,66.7,246.1,67.7"/>
<path class="st0" d="M255.3,51.4c-0.4,1.1-0.9,2.2-1.4,3.3v13.2h-1.8v-9.3h-1.9c0.6-1.3,1.3-2.8,1.9-4.2v0h0c0.4-1.1,0.9-2.1,1.2-3
	H255.3z M257.5,59.3c-0.7-2-1.3-4.3-1.7-6.1h1.9c0.3,1.8,0.9,3.9,1.7,6.1H257.5z M268.9,65.8v2.1c-2.5-1.3-5.1-3.5-6.4-6.6
	c-0.9,2.5-2.9,4.6-6.3,6.6v-2.1c3.8-2.3,5.1-5.4,5.1-8.5v-6h1.9v6C263.2,60.9,266,64,268.9,65.8 M267.1,59.3h-1.9
	c0.7-2,1.3-4.1,1.7-6.1h1.8C268.3,55.2,267.6,57.7,267.1,59.3"/>
<path class="st0" d="M278.2,51.3c-0.5,1.2-0.9,2.4-1.4,3.6v13.1h-1.9v-9.2h-1.8c0.7-1.4,1.3-2.8,1.8-4.2v-0.2h0.1
	c0.4-1.1,0.8-2.1,1.1-3.1H278.2z M292.1,63h-6v4.8h-1.9V63h-5.9v-1.3h5.9v-2.6h-5.4v-1.3h5.4v-6.6h1.9v6.6h5.4v1.3h-5.4v2.6h6V63z
	 M280.5,56.6c-0.6-1.6-1-3.1-1.3-4.5h1.8c0.3,1.3,0.9,3.3,1.4,4.5H280.5z M289.8,56.6h-1.9c0.5-1.3,1-2.9,1.4-4.5h1.8
	C290.8,53.5,290.4,55,289.8,56.6"/>
<polyline class="st0" points="189.5,67.9 189.5,25.4 190,25.4 190,67.9 "/>
<path class="st0" d="M51.9,32.1c2.9,3.2,3.9,8,3.3,15c-0.7,7.5-2.4,12.1-5.6,15.1c-3.5,3.2-9,4.7-17.5,4.7c-8.5,0-14-1.5-17.5-4.7
	c-3.2-2.9-4.9-7.6-5.6-15.1c-0.6-7.1,0.4-11.8,3.3-15c3.4-3.8,9.7-5.6,19.8-5.6C42.2,26.5,48.5,28.3,51.9,32.1 M32.1,25.4
	c-20.2,0-25.5,7.3-24.2,21.8c1.3,14.5,6.6,20.7,24.2,20.7c17.6,0,22.9-6.3,24.2-20.7C57.6,32.8,52.3,25.4,32.1,25.4"/>
<path class="st0" d="M32.1,27.6c-18.1,0-23,6.5-21.8,19.5c1.2,13,5.9,18.6,21.8,18.6c15.9,0,20.7-5.6,21.8-18.6
	C55.1,34.1,50.3,27.6,32.1,27.6 M41.3,30.6c-3.5,8.8-7.4,17.1-8.7,19.7c-0.2,0.4-0.7,0.4-0.9,0c-1.3-2.6-5.2-10.9-8.7-19.7
	c0-0.1,0-0.2,0.1-0.3c2.5-0.5,5.5-0.8,9-0.8s6.5,0.3,9,0.8C41.3,30.4,41.3,30.5,41.3,30.6 M12.2,47c-0.5-6,0.3-10.1,2.7-12.7
	c1.3-1.4,3.2-2.5,5.6-3.3c0.1,0,0.3,0.1,0.3,0.2v11.9c0,2,0.5,3.9,1.4,5.7l8,14.8c0.1,0.1,0,0.3-0.2,0.3c-6.3-0.2-10.5-1.5-13.1-3.9
	C14.3,57.4,12.8,53.4,12.2,47 M52,47c-0.6,6.4-2,10.4-4.7,12.9c-2.7,2.4-6.9,3.7-13.1,3.9c-0.1,0-0.2-0.2-0.2-0.3l8-14.8
	c0.9-1.7,1.4-3.7,1.4-5.7V31.2c0-0.1,0.1-0.2,0.3-0.2c2.4,0.8,4.3,1.9,5.6,3.3C51.7,36.9,52.6,40.9,52,47"/>
<path class="st0" d="M90.4,41.2H80.1c2.1,3.6,4.9,6.1,10.3,8.1v2.6c-6.6-1.5-10.5-5.1-13.9-10.7h-3.6V49c0,0.4,0.2,0.6,0.6,0.6h3.8
	v2.2h-6c-1.3,0-2-0.7-2-2v-8.6h-3.6V39h3.6v-7.8h3.6V39h17.5V41.2z M80.5,37.5h-4c3.1-2.6,5.6-4.5,7.8-6h4.9v0.4
	C86.8,33.1,83.1,35.3,80.5,37.5"/>
<path class="st0" d="M110.2,47.3c3,0.9,6.1,1.6,8.4,2v2.6c-3.2-0.5-7.3-1.5-11.3-2.9c-3.5,1.6-8,2.4-13.4,2.9v-2.6
	c3.8-0.2,7.1-0.7,9.7-1.6c-2-0.8-3.8-1.6-5.3-2.4c-0.9-0.5-0.9-1.1-0.3-2c0.4-0.6,0.9-1.3,1.3-2.1h-5.4V39h6.9
	c0.6-0.9,1.3-1.8,1.9-2.6h4v0.4c-0.6,0.6-1.2,1.4-1.9,2.2h13.8v2.1h-3.7C113.7,43.8,112.2,45.8,110.2,47.3 M98.1,37.3h-3.6v-4.8h9.6
	v-1.8h3.9v1.8h8c1.3,0,2,0.7,2,2v2.8h-3.6v-2.1c0-0.4-0.2-0.6-0.6-0.6H98.1V37.3z M106.9,46.2c2-1.2,3.5-2.9,4.4-5.1h-8.1
	c-0.7,0.9-1.3,1.7-1.7,2.3c-0.3,0.3-0.2,0.6,0.1,0.7C102.6,44.7,104.6,45.5,106.9,46.2"/>
<path class="st0" d="M125.4,31.4c0.9,1.2,1.7,2.6,2.5,4.3h-3.3c-0.8-1.4-1.6-2.6-2.8-3.9v-0.4H125.4z M127.5,41.1
	c0.4,0.9,0.4,1.9,0.2,2.8c-0.5,2.2-1.3,4.9-2.3,7.9h-3.5c1.3-3.1,2.3-6.3,2.8-8.1c0.2-0.6,0.2-1.3-0.1-1.9c-0.6-1.1-1.7-2.8-2.7-4
	v-0.4h3.6C126.2,38.6,127,39.9,127.5,41.1 M131.5,37.1h-3.4c1.1-2.2,2.4-4.6,3.4-6.3h3.8v0.4c-0.4,0.5-0.8,1-1.2,1.6h12.1v2.1h-13.4
	C132.3,35.7,131.9,36.4,131.5,37.1 M146.5,49.5v2.4c-3.8-0.6-5.6-2-5.6-5.6v-3.5c0-0.4-0.2-0.6-0.6-0.6l-10.5,0v-2.1h12.5
	c1.3,0,2,0.7,2,2v3.6C144.4,48,145.1,49,146.5,49.5 M132.4,36.5H145v2h-12.7V36.5z"/>
<path class="st0" d="M174.6,47.2H165v4.7h-3.6v-4.7h-11.5v-2.1h11.5v-3H153c-1.6,0-2.1-1-1.3-2.4c1-1.5,2.1-3.1,3.2-4.7h-4.7V33h6.2
	c0.5-0.7,1-1.4,1.5-2.1h4v0.4l-1.3,1.7h13.8v2.1h-15.3c-1.1,1.5-2.1,2.9-3.1,4.4c-0.3,0.4-0.1,0.7,0.3,0.7h5.1v-3.4h3.6v3.4h8.3v2
	H165v3h9.6V47.2z"/>
<path class="st0" d="M69.7,62.4c-2.5,0-4-0.9-4-3.5c0-2.4,1.5-3.4,4.1-3.4H73v1.8h-3.1c-1.2,0-1.6,0.3-1.6,1.6
	c0,1.4,0.4,1.7,1.7,1.7h3v1.8H69.7z"/>
<polygon class="st0" points="83.2,55.6 83.2,62.4 80.6,62.4 80.6,59.8 77.8,59.8 77.8,62.4 75.2,62.4 75.2,55.6 77.8,55.6 77.8,58 
	80.6,58 80.6,55.6 "/>
<path class="st0" d="M84.6,62.4l2.8-6.8h2.3c0.6,0,0.8,0.2,1,0.6l2.7,6.2h-2.7L89,58.2c-0.1-0.3-0.3-0.3-0.4,0l-1.7,4.2H84.6z"/>
<path class="st0" d="M100.5,62l-3.2-3C97.1,58.9,97,59,97,59.2v3.2h-2.1v-6.8h1.4c0.5,0,0.8,0.1,1.1,0.3l3.4,3.1
	c0.1,0.1,0.2,0,0.2-0.1v-3.3h2.1v6.5c0,0.2-0.1,0.3-0.3,0.3h-1.1C101.1,62.4,100.7,62.3,100.5,62"/>
<path class="st0" d="M113,62.4h-3.9c-2.7,0-4.1-0.9-4.1-3.5c0-2.3,1.4-3.4,4.2-3.4h4.2v1.8h-4.1c-1.3,0-1.6,0.3-1.6,1.6
	c0,1.4,0.3,1.8,1.7,1.8h1.5c0.1,0,0.2-0.1,0.2-0.2v-0.6c0-0.1-0.1-0.2-0.2-0.2h-1.2v-1.5h3.4c0.2,0,0.3,0.1,0.3,0.3v3.5
	C113.3,62.3,113.2,62.4,113,62.4"/>
<path class="st0" d="M114.8,62.4l2.8-6.8h2.3c0.6,0,0.8,0.2,1,0.6l2.7,6.2h-2.8l-1.7-4.2c-0.1-0.3-0.3-0.3-0.4,0l-1.7,4.2H114.8z"/>
<path class="st0" d="M130.7,62l-3.2-3c-0.1-0.1-0.2-0.1-0.2,0.1v3.2h-2.1v-6.8h1.4c0.5,0,0.8,0.1,1.1,0.3l3.4,3.1
	c0.1,0.1,0.2,0,0.2-0.1v-3.3h2.1v6.5c0,0.2-0.1,0.3-0.3,0.3h-1.1C131.3,62.4,130.9,62.3,130.7,62"/>
<path class="st0" d="M137.4,62.4l2.8-6.8h2.3c0.6,0,0.8,0.2,1,0.6l2.7,6.2h-2.8l-1.7-4.2c-0.1-0.3-0.3-0.3-0.4,0l-1.7,4.2H137.4z"/>
<path class="st0" d="M155.1,55.6v3.9c0,2.5-1.6,3.1-4,3.1c-2.4,0-4-0.7-4-3.1v-3.9h2.6v3.6c0,1.4,0.7,1.7,1.7,1.7
	c0.9,0,1.7-0.3,1.7-1.7v-3.6H155.1z"/>
<polygon class="st0" points="156.8,55.6 164.5,55.6 164.5,57.4 161.9,57.4 161.9,62.4 159.3,62.4 159.3,57.4 156.8,57.4 "/>
<path class="st0" d="M174.6,59c0,2.6-1.5,3.7-4.6,3.7c-3,0-4.6-1.1-4.6-3.7c0-2.6,1.6-3.6,4.6-3.6C173.1,55.3,174.6,56.4,174.6,59
	 M168.1,59c0,1.4,0.5,1.9,1.9,1.9c1.5,0,1.9-0.5,1.9-1.9c0-1.4-0.5-1.9-1.9-1.9C168.6,57.1,168.1,57.6,168.1,59"/>
</svg>
